<svg xmlns="http://www.w3.org/2000/svg" xmlns:xlink="http://www.w3.org/1999/xlink" aria-hidden="true" role="img" class="iconify iconify--logos" width="31.88" height="32" preserveAspectRatio="xMidYMid meet" viewBox="0 0 256 257"><defs><linearGradient id="IconifyId1813088fe1b34c6d83" x1="-.828%" x2="57.636%" y1="7.652%" y2="78.411%"><stop offset="0%" stop-color="#41D1FF"></stop><stop offset="100%" stop-color="#BD34FE"></stop></linearGradient><linearGradient id="IconifyId1813088fe1b34c6d84" x1="43.376%" x2="58.316%" y1="-12.32%" y2="105.333%"><stop offset="0%" stop-color="#FFEA83"></stop><stop offset="8.333%" stop-color="#FFDD35"></stop><stop offset="100%" stop-color="#FFA800"></stop></linearGradient></defs><path fill="url(#IconifyId1813088fe1b34c6d83)" d="M255.153 37.342L138.618 252.524a20.865 20.865 0 0 1-38.652-1.4L.847 37.342a20.865 20.865 0 0 1 28.01-29.333l88.693 47.73l88.69-47.73a20.865 20.865 0 0 1 28.913 29.333Z"></path><path fill="url(#IconifyId1813088fe1b34c6d84)" d="M128 256.5c-11.53 0-22.03-9.34-22.03-20.86v-95.42c0-11.52 9.34-20.86 20.86-20.86s20.86 9.34 20.86 20.86v95.42c0 11.52-9.33 20.86-20.86 20.86Z"></path></svg>